<?xml version="1.0" encoding="UTF-8"?>
<svg width="26px" height="26px" viewBox="0 0 26 26" version="1.1" xmlns="http://www.w3.org/2000/svg" xmlns:xlink="http://www.w3.org/1999/xlink">
    <!-- Generator: sketchtool 45.2 (43514) - http://www.bohemiancoding.com/sketch -->
    <title>88139A18-BECF-4913-81CB-08AE3F4FF97E</title>
    <desc>Created with sketchtool.</desc>
    <defs></defs>
    <g id="Page-1" stroke="none" stroke-width="1" fill="none" fill-rule="evenodd">
        <g id="Desktop" transform="translate(-335.000000, -618.000000)" fill="#EE4C77">
            <g id="Group-4" transform="translate(335.000000, 553.000000)">
                <g id="ic_cadeado" transform="translate(0.000000, 65.000000)">
                    <g id="Page-1" transform="translate(5.200000, 3.250000)">
                        <path d="M13.8925358,6.40605469 L4.42186415,6.40605469 L4.42186415,6.36246406 L4.42186415,3.55617031 C4.42186415,2.51853672 5.26132075,1.67853359 6.29827925,1.67853359 L9.56603774,1.67853359 C10.6029962,1.67853359 11.4424528,2.51853672 11.4424528,3.55617031 L11.4424528,3.73347813 C11.4424528,4.15347969 11.795366,4.50662266 12.2150943,4.50662266 C12.6348226,4.50662266 12.9877358,4.15347969 12.9877358,3.73347813 L12.9877358,3.55617031 C12.9877358,1.67853359 11.4424528,0.132244531 9.56603774,0.132244531 L6.29827925,0.132244531 C4.42186415,0.132244531 2.87658113,1.67853359 2.87658113,3.55617031 L2.87658113,6.38425938 L2.87658113,6.42785 L1.68450566,6.42785 C0.801486792,6.42785 0.0724075472,7.15740391 0.0724075472,8.04099766 L0.0724075472,17.1643977 C0.0724075472,18.0479914 0.801486792,18.7775453 1.68450566,18.7775453 L13.8925358,18.7775453 C14.7755547,18.7775453 15.504634,18.0479914 15.504634,17.1643977 L15.504634,8.04099766 C15.504634,7.13560859 14.7755547,6.40605469 13.8925358,6.40605469 L13.8925358,6.40605469 Z M13.9593509,17.1632195 C13.9593509,17.2071047 13.9154943,17.2300781 13.8925358,17.2300781 L1.70746415,17.2300781 C1.66360755,17.2300781 1.64064906,17.1864875 1.64064906,17.1632195 L1.64064906,8.04099766 C1.64064906,7.9971125 1.68450566,7.97413906 1.70746415,7.97413906 L13.9154943,7.97413906 C13.9593509,7.97413906 13.9823094,8.01802422 13.9823094,8.04099766 L13.9823094,17.1632195 L13.9593509,17.1632195 Z" id="Fill-1"></path>
                        <path d="M9.5442566,13.3516602 C9.5442566,14.3156609 8.76337358,15.0970523 7.8,15.0970523 C6.83662642,15.0970523 6.0557434,14.3156609 6.0557434,13.3516602 C6.0557434,12.3876594 6.83662642,11.606268 7.8,11.606268 C8.76337358,11.606268 9.5442566,12.3876594 9.5442566,13.3516602" id="Fill-2"></path>
                    </g>
                </g>
            </g>
        </g>
    </g>
</svg>