<?xml version="1.0" encoding="UTF-8"?>
<svg width="27px" height="27px" viewBox="0 0 27 27" version="1.1" xmlns="http://www.w3.org/2000/svg" xmlns:xlink="http://www.w3.org/1999/xlink">
    <!-- Generator: sketchtool 45.2 (43514) - http://www.bohemiancoding.com/sketch -->
    <title>C7C440BE-0DA5-43E8-8DC3-195D19ACE245</title>
    <desc>Created with sketchtool.</desc>
    <defs></defs>
    <g id="Page-1" stroke="none" stroke-width="1" fill="none" fill-rule="evenodd">
        <g id="Desktop" transform="translate(-335.000000, -553.000000)" stroke="#EE4C77" stroke-width="0.65" fill="#EE4C77">
            <g id="Group-4" transform="translate(335.000000, 553.000000)">
                <g id="Group-3" transform="translate(0.650000, 0.650000)">
                    <path d="M6.972992,7.15 C5.997056,7.15 5.2,7.84003976 5.2,8.68494231 L5.2,16.6650577 C5.2,17.5099602 5.997056,18.2 6.972992,18.2 L19.027216,18.2 C20.002944,18.2 20.8,17.5099602 20.8,16.6650577 L20.8,8.68494231 C20.8,7.84003976 20.002944,7.15 19.027216,7.15 L6.972992,7.15 L6.972992,7.15 Z M6.972992,7.76422903 L19.027216,7.76422903 C19.62272,7.76422903 20.09072,8.16939329 20.09072,8.68494231 L20.09072,8.71159312 L13,14.8502819 L5.90928,8.71159312 L5.90928,8.68494231 C5.90928,8.16939329 6.37728,7.76422903 6.972992,7.76422903 L6.972992,7.76422903 Z M5.90928,9.57972508 L9.562384,12.7421672 L5.90928,15.9047895 L5.90928,9.5802653 L5.90928,9.57972508 Z M20.091552,9.5802653 L20.091552,15.7971058 L16.501056,12.6886855 L20.091552,9.5802653 L20.091552,9.5802653 Z M15.999776,13.1226615 L20.091552,16.6650577 C20.091552,17.1807868 19.623552,17.585951 19.028048,17.585951 L6.973616,17.585951 C6.418048,17.585951 5.973552,17.2328279 5.91656,16.7671591 L10.064496,13.1761432 L12.749776,15.5008857 C12.887888,15.6204542 13.112944,15.6204542 13.251056,15.5008857 L15.999776,13.121401 L15.999776,13.1226615 Z" id="Page-1"></path>
                </g>
            </g>
        </g>
    </g>
</svg>